<svg width="24" height="24" viewBox="0 0 24 24" xmlns="http://www.w3.org/2000/svg"><path d="M16 8C17.5913 8 19.1174 8.63214 20.2426 9.75736 21.3679 10.8826 22 12.4087 22 14V21H18V14C18 13.4696 17.7893 12.9609 17.4142 12.5858 17.0391 12.2107 16.5304 12 16 12 15.4696 12 14.9609 12.2107 14.5858 12.5858 14.2107 12.9609 14 13.4696 14 14V21H10V14C10 12.4087 10.6321 10.8826 11.7574 9.75736 12.8826 8.63214 14.4087 8 16 8V8ZM6 9H2V21H6V9ZM4 6C5.10457 6 6 5.10457 6 4 6 2.89543 5.10457 2 4 2 2.89543 2 2 2.89543 2 4 2 5.10457 2.89543 6 4 6Z"/></svg>