<svg width="140" height="48" viewBox="0 0 140 48" fill="none" xmlns="http://www.w3.org/2000/svg">
<path d="M71.2428 14.2327C69.177 12.8701 66.3961 12.3629 62.6918 12.362H55.6855V35.5553H62.8377C65.3846 35.5553 67.5748 35.2284 69.4037 34.4936C71.2428 33.7468 72.6788 32.557 73.6578 30.8377C74.6368 29.1184 75.144 26.8892 75.144 24.0488C75.144 21.5929 74.8346 19.5838 74.1937 17.9648C73.5528 16.3458 72.5655 15.1179 71.2428 14.2327ZM69.3656 28.0642C69.0201 29.2215 68.4674 30.1076 67.6091 30.7188C66.6654 31.3848 65.2415 31.747 63.4823 31.747H60.9744V16.1768H63.0792C65.1514 16.1833 66.6859 16.5149 67.7178 17.2738C68.473 17.8366 68.9978 18.6215 69.3415 19.6888C69.6851 20.756 69.8365 22.1149 69.8365 23.7905C69.8365 25.4662 69.7102 26.905 69.3656 28.0642Z" fill="#C82021"/>
<path d="M78.4587 35.5553H83.7569V25.6696H89.8798V21.8901H83.7569V16.1777L93.2163 16.1796V12.3583H78.4587V35.5553Z" fill="#C82021"/>
<path d="M96.5693 35.5553H101.874V12.3583H96.5693C96.5693 12.3583 96.5303 35.5553 96.5693 35.5553Z" fill="#C82021"/>
<path d="M125.185 12.3583H119.86V25.6696L110.003 12.3583H105.756V35.5553H111.085V21.8938L120.835 35.5553H125.185V12.3583Z" fill="#C82021"/>
<path d="M35.6678 36.4396C35.2229 36.2612 34.7761 35.9203 33.577 33.9029L31.1889 29.9423L28.3745 25.2739L28.1358 24.8773C28.2742 24.8383 28.4089 24.7937 28.5426 24.7482C31.775 23.6401 33.6615 20.6817 33.6615 16.461C33.6673 15.4292 33.4514 14.4081 33.0283 13.467C32.6052 12.5258 31.9849 11.6865 31.2094 11.0059C30.9746 10.8039 30.7284 10.6156 30.4719 10.4421C28.3216 9.02374 25.4254 8.49151 21.5679 8.49151H14.2728H14.165C13.6913 8.48594 13.6458 8.75809 13.8325 9.00609C13.9997 9.22623 14.1901 9.51975 14.2728 10.2647V33.5564C14.1911 34.5048 13.9941 34.8067 13.8325 35.0249C13.6467 35.2711 13.7276 35.5534 14.2041 35.5479H19.5988V25.6687H22.0537L23.7786 28.6001L25.9475 32.2867L27.0017 34.0784C28.3411 36.3337 29.5096 37.583 31.8475 37.8496C32.1864 37.8921 32.5276 37.9138 32.8692 37.9146H33.2305C34.0665 37.9146 34.8894 37.5783 35.3994 37.3573C35.469 37.3322 35.5359 37.3053 35.6028 37.2755C36.2168 37.0071 36.0468 36.591 35.6678 36.4396ZM23.029 21.8901H19.5988V12.3611H23.0355C24.7344 12.3611 26.0292 12.5812 26.9998 13.4627C27.3672 13.8105 27.6528 14.2357 27.8358 14.7074C28.0745 15.3074 28.1943 16.03 28.1943 16.8994C28.1841 18.1664 28.068 21.8901 23.029 21.8901Z" fill="#C82021"/>
<path d="M42.6165 25.6733H48.7533V21.8938H42.6165V16.1666H52.0721V12.3629H37.3081V35.559H52.0749V31.7127H42.6165V25.6733Z" fill="#C82021"/>
</svg>
