<svg xmlns="http://www.w3.org/2000/svg" width="316" height="315" viewBox="0 0 316 315">
  <g fill="none">
    <path fill="#184070" d="M26.4,0 L289.7,0 C304,0 315.5,11.6 315.5,25.8 L315.5,289.1 C315.5,303.4 303.9,314.9 289.7,314.9 L26.4,314.9 C12.1,314.9 0.6,303.3 0.6,289.1 C0.6,289.1 0.6,289.1 0.6,289.1 L0.6,25.8 C0.6,11.6 12.1,0 26.4,0 C26.4,0 26.4,0 26.4,0 Z"/>
    <g transform="translate(45 67)">
      <path fill="#F8DE8A" d="M134.6 13.2C134 11.8 134 10.2 134.6 8.8L137.4 2.7C138.1 1.1 139.6.1 141.3.1L143.6.1C145.3 9.11770659e-15 146.9 1.1 147.6 2.7L225.2 174.9C226.3 176.9 225.5 179.4 223.5 180.4 222.8 180.8 222.1 180.9 221.3 180.9L212 180.9C210.3 180.9 208.7 179.9 208.1 178.3L134.6 13.2zM122.3 76.4L113.2 96.9 149.5 178.4C150.2 180 151.7 181 153.4 181L162.7 181C165 181.2 166.9 179.5 167.1 177.2 167.2 176.4 167 175.7 166.6 175L122.3 76.4z"/>
      <path fill="#FEF9CE" d="M91.4 8.8L88.6 2.7C87.9 1.1 86.3.1 84.6.1L82.3.1C80.6.1 79 1.1 78.4 2.7L.9 174.8C-.2 176.8.6 179.3 2.6 180.3 3.3 180.7 4.1 180.8 4.9 180.8L14.2 180.8C15.9 180.8 17.4 179.8 18.1 178.3L91.5 13.2C92.2 11.8 92.2 10.2 91.4 8.8M150.4 8.8L147.6 2.7C146.9 1.1 145.4.1 143.7.1L141.4.1C139.7.1 138.1 1.1 137.5 2.7L59.9 174.9C58.8 176.9 59.6 179.4 61.6 180.4 62.3 180.8 63.1 180.9 63.9 180.9L73.1 180.9C74.8 180.9 76.4 179.9 77.1 178.3L150.4 13.2C151.1 11.8 151.1 10.2 150.4 8.8"/>
    </g>
  </g>
</svg>
