<svg xmlns="http://www.w3.org/2000/svg" viewBox="0 0 1069 790"><defs><style>.cls-1,.cls-2,.cls-3,.cls-4,.cls-5{fill:none;stroke-linecap:round;stroke-linejoin:round;stroke-width:6px;}.cls-1{stroke:#fff;}.cls-2{stroke:#f9de89;}.cls-3{stroke:#b6a264;}.cls-4{stroke:#fdf9e9;}.cls-5{stroke:#fbeab3;}</style></defs><g id="Layer_2" data-name="Layer 2"><g id="Layer_4" data-name="Layer 4"><polyline class="cls-1" points="682.69 589.43 538.47 599.31 215.89 576.85 215.89 508.56 254.07 500.47 257.22 359.39 254.97 356.7 257.22 348.16 254.53 348.16 250.48 342.77 347.98 292 348.87 283.46 339.89 281.67 336.74 277.62 367.74 261 400.54 261.45 504.1 199.22 712.57 257.63 712.57 252.24 709.87 247.3 727 238 733.68 241.46 743.57 227.98 750.76 226.18 768.28 251.79 777.71 254.94 773.67 258.98 773 276 856.11 298.29 848.92 314.92 851.17 568.76 805.35 573.7"/><polyline class="cls-1" points="794.11 606.05 709.65 587.63 689.88 588.98"/><polyline class="cls-1" points="651.26 318.82 651.26 280.32 678.65 286.16 678.65 340.52"/><polyline class="cls-1" points="503.88 199 503.88 468.57 538.47 464.98 538.47 599.31"/><polyline class="cls-1" points="348.87 283.46 347.98 292 346.18 486.99 372.24 484.74 404.14 486.54 405.93 279.42 503.88 226.41 716.84 280.32"/><polyline class="cls-1" points="348.87 290.65 371.79 277.62 405.93 279.42"/><polyline class="cls-1" points="727.17 238.99 730.32 471.71 786.48 531.02 786.48 562.02 792.32 562.47 792.23 567.5 798.16 567.86 798.13 573.12 805.35 573.7 805.31 579.96 812.08 580.89 811.82 586.15 820.17 588.53 820.17 601.56"/><line class="cls-1" x1="773" y1="276" x2="778.81" y2="522.92"/><polygon class="cls-1" points="740.2 307.73 763.56 313.12 763.56 373.32 740.2 368.83 740.2 307.73"/><polygon class="cls-1" points="763.56 410.16 763.56 471.26 740.2 468.57 740.2 404.32 763.56 410.16"/><line class="cls-1" x1="763.56" y1="353.69" x2="740.2" y2="348.82"/><line class="cls-1" x1="740.2" y1="445.66" x2="763.56" y2="449.44"/><polyline class="cls-1" points="774.41 321.23 790.52 325.7 790.52 381.41 776.14 378.26"/><path class="cls-1" d="M599.57,307.73,679.1,324.8s-5,11.23,0,15.72,2.69,10.79,2.69,10.79l7.19,2.24-6.29,11.68-80.42-13.92-28.75,6.74-3.6-13,3.15-27Z"/><polygon class="cls-1" points="618.44 376.02 618.44 425.89 586.54 422.29 586.54 370.63 618.44 376.02"/><polygon class="cls-1" points="503.88 422.55 542.51 417.35 719.53 437.57 719.53 464.98 540.72 454.64 503.88 458.43 503.88 422.55"/><polyline class="cls-1" points="719.53 464.98 719.53 473.96 709.65 492.38 709.65 587.63"/><polyline class="cls-1" points="523.64 420.05 523.64 358.5 549.25 362.54 549.25 418.25 542.51 417.35 542.51 417.35"/><line class="cls-1" x1="586.54" y1="389.94" x2="618.44" y2="394.13"/><line class="cls-1" x1="549.25" y1="384.07" x2="523.64" y2="381.41"/><line class="cls-1" x1="602.49" y1="392.03" x2="602.49" y2="424.09"/><polyline class="cls-1" points="675.26 363.95 649.89 386.8 649.89 429.48"/><polyline class="cls-1" points="711.89 257.41 721.33 260.1 716.39 280.32 719.53 437.57"/><polygon class="cls-1" points="454.01 276.73 454.01 340.52 469.73 333.33 469.73 265.49 454.01 276.73"/><line class="cls-1" x1="469.73" y1="306.29" x2="454.01" y2="313.69"/><polygon class="cls-1" points="602.27 351.31 573.51 384.1 573.51 358.05 602.27 351.31"/><polyline class="cls-1" points="715.94 480.7 763.56 533.27 763.56 563.82 769.4 563.82 769.4 570.56 776.14 570.56 776.14 579.54 782.43 579.54 782.43 588.08 786.92 588.08 786.48 593.92 794.16 594.41 794.11 606.05 820.17 601.56"/><line class="cls-1" x1="709.65" y1="511.7" x2="794.11" y2="606.05"/><polygon class="cls-1" points="324.16 418.7 335.39 414.66 335.39 469.47 324.16 472.16 324.16 418.7"/><polygon class="cls-1" points="324.16 336.93 324.16 387.25 335.39 382.76 335.39 331.09 324.16 336.93"/><polygon class="cls-1" points="275.64 361.64 285.52 356.7 285.52 403.87 275.64 408.37 275.64 361.64"/><polygon class="cls-1" points="275.64 433.52 285.52 429.93 284.63 480.25 275.64 482.05 275.64 433.52"/><line class="cls-1" x1="324.16" y1="446.55" x2="335.4" y2="443.41"/><line class="cls-1" x1="324.16" y1="368.04" x2="335.4" y2="363.02"/><line class="cls-1" x1="275.64" y1="388.93" x2="285.52" y2="384.56"/><line class="cls-1" x1="275.64" y1="458.41" x2="285.06" y2="455.99"/><polyline class="cls-1" points="404.14 486.99 362.35 491.03 346.18 486.99 371.79 484.74 371.79 278.52"/><line class="cls-1" x1="848.93" y1="313.57" x2="774" y2="295"/><polyline class="cls-1" points="656.96 380.43 679.55 383.21 679.55 433.08 649.89 429.48"/><line class="cls-1" x1="541.4" y1="417.9" x2="541.4" y2="454.8"/><line class="cls-1" x1="719.53" y1="473.96" x2="538.47" y2="464.98"/><path class="cls-1" d="M422.56,547.19s-3.6-2.24,0-6.74c5.84-2.69,42.23-21.11,47.62-21.11s46.28,21.56,46.28,21.56,2.24,5,0,6.29-34.6,3.15-36.4,0a10.77,10.77,0,0,0-2.69-5.84s-.9,5.84-2.7,6.74S427.05,549.44,422.56,547.19Z"/><line class="cls-1" x1="471" y1="548.55" x2="471" y2="608.75"/><path class="cls-1" d="M485.46,615.93s-13.93,7.19-28.76-.45l14.38-6.73Z"/><polygon class="cls-1" points="592.38 569.66 579.8 589.43 573.07 569.66 592.38 569.66"/><polygon class="cls-1" points="564.98 586.28 573.07 569.66 579.8 589.43 564.98 586.28"/><ellipse class="cls-1" cx="563.41" cy="586.96" rx="11.01" ry="14.6"/><ellipse class="cls-1" cx="600.47" cy="586.06" rx="7.19" ry="13.7" transform="translate(-137.09 186.01) rotate(-15.83)"/><line class="cls-1" x1="600.47" y1="567.41" x2="586.54" y2="564.27"/><line class="cls-1" x1="792.32" y1="562.47" x2="769.4" y2="563.82"/><line class="cls-1" x1="798.16" y1="567.86" x2="776.14" y2="570.56"/><line class="cls-1" x1="805.34" y1="573.7" x2="782.43" y2="579.54"/><line class="cls-1" x1="786.92" y1="587.63" x2="812.08" y2="580.89"/><line class="cls-1" x1="820.17" y1="588.53" x2="794.11" y2="594.37"/><polyline class="cls-1" points="781.98 562.47 781.98 555.28 775.24 554.38 775.24 550.34 770.3 548.99 770.3 543.15 766.26 541.8 766.26 537.76 763.56 536.21"/><line class="cls-1" x1="763.56" y1="557.17" x2="781.98" y2="555.28"/><line class="cls-1" x1="763.56" y1="550.03" x2="773" y2="549.89"/><path class="cls-1" d="M599.57,307.73s-2.69,13.47.9,18,3.15,11.68,1.8,13.48l4.94,2.24-4.94,9.89"/><polygon class="cls-1" points="825.56 332.89 840.84 336.03 840.71 398.67 825.43 395.98 825.56 332.89"/><line class="cls-1" x1="825.56" y1="348.82" x2="840.84" y2="352.21"/><polygon class="cls-1" points="804.45 418.7 818.82 420.05 818.82 468.57 804.45 466.32 804.45 418.7"/><polyline class="cls-1" points="589.75 311.56 589.75 263.25 613.05 269.09 613.05 310.62"/><polygon class="cls-1" points="451.76 376.47 469.73 371.07 469.73 441.16 451.76 444.76 451.76 376.47"/><line class="cls-1" x1="451.76" y1="399.38" x2="469.73" y2="394.66"/><polygon class="cls-1" points="353.73 399.76 364.15 395.79 364.15 456.44 353.37 458.24 353.73 399.76"/><polygon class="cls-1" points="353.73 311.77 364.15 305.48 364.15 362.54 353.37 367.93 353.73 311.77"/><line class="cls-1" x1="347.84" y1="307.28" x2="254.97" y2="356.7"/><polygon class="cls-1" points="545.21 475.76 545.21 495.53 587.89 497.32 587.89 478 545.21 475.76"/><polyline class="cls-1" points="587.89 564.27 587.89 504.96 545.21 502.71 545.21 592.57 552.4 592.12"/><polygon class="cls-1" points="595.53 478 595.53 497.32 630.57 497.32 630.57 479.8 595.53 478"/><polygon class="cls-1" points="639.56 480.7 639.56 511.25 660.68 512.15 660.68 481.6 639.56 480.7"/><polyline class="cls-1" points="595.53 565.84 595.53 505.41 630.57 505.41 630.57 585.38 608.11 587.18"/><polygon class="cls-1" points="663.37 519.34 689.88 517.09 689.88 591.67 663.37 582.24 663.37 519.34"/><polygon class="cls-1" points="639.11 518.44 663.37 519.34 663.37 582.24 639.11 584.03 639.11 518.44"/><polyline class="cls-1" points="689.88 580.77 702.46 579.99 702.46 533.27 689.88 534.14"/><polyline class="cls-1" points="689.88 526.53 702.46 526.53 703.36 482.5 669.66 480.7 669.66 517.09"/><line class="cls-2" x1="532" y1="39" x2="532" y2="190"/><line class="cls-3" x1="460" y1="3" x2="491.77" y2="181.22"/><line class="cls-2" x1="414" y1="84" x2="458" y2="206"/><line class="cls-4" x1="318" y1="39" x2="426" y2="226"/><line class="cls-2" x1="249" y1="75" x2="393" y2="245"/><line class="cls-2" x1="320.6" y1="233.7" x2="346" y2="255"/><line class="cls-2" x1="185" y1="120" x2="301.41" y2="217.61"/><line class="cls-5" x1="257.46" y1="252.54" x2="317" y2="287"/><line class="cls-2" x1="101" y1="162" x2="243.92" y2="244.71"/><line class="cls-4" x1="106" y1="257" x2="267" y2="315"/><line class="cls-2" x1="208.25" y1="355.71" x2="238" y2="361"/><line class="cls-3" x1="30" y1="324" x2="182.51" y2="351.13"/><line class="cls-4" x1="3" y1="413" x2="238" y2="413"/><line class="cls-2" x1="121.7" y1="486.24" x2="238" y2="466"/><line class="cls-5" x1="64.97" y1="496.12" x2="97.27" y2="490.49"/><line class="cls-2" x1="113" y1="567" x2="197" y2="537"/><line class="cls-2" x1="154" y1="634" x2="227" y2="592"/><line class="cls-3" x1="266.9" y1="639.68" x2="318" y2="597"/><line class="cls-2" x1="227" y1="673" x2="234.18" y2="667"/><line class="cls-5" x1="313" y1="681" x2="377" y2="604"/><line class="cls-4" x1="372" y1="701" x2="426" y2="607"/><line class="cls-5" x1="406" y1="778" x2="460.41" y2="628.38"/><polyline class="cls-2" points="475 781 489.57 695.76 493.14 675.56 504 614"/><line class="cls-2" x1="540" y1="692.85" x2="540" y2="614"/><line class="cls-2" x1="540" y1="787" x2="540" y2="724.22"/><line class="cls-2" x1="601" y1="757" x2="576" y2="615"/><line class="cls-3" x1="644" y1="693" x2="614" y2="612"/><line class="cls-2" x1="727" y1="732" x2="653" y2="604"/><line class="cls-5" x1="743.31" y1="649.71" x2="705" y2="604"/><line class="cls-2" x1="801" y1="718" x2="757.53" y2="666.55"/><line class="cls-2" x1="923" y1="729" x2="793" y2="620"/><line class="cls-4" x1="997" y1="670" x2="850" y2="585"/><line class="cls-2" x1="914" y1="542" x2="864" y2="523"/><line class="cls-3" x1="975" y1="482" x2="867" y2="463"/><line class="cls-2" x1="1066" y1="405" x2="867" y2="405"/><line class="cls-2" x1="942" y1="333" x2="867" y2="346"/><line class="cls-4" x1="1022.83" y1="227.8" x2="866" y2="285"/><line class="cls-2" x1="1066" y1="212" x2="1041.76" y2="220.87"/><line class="cls-2" x1="923" y1="181" x2="794" y2="255"/><line class="cls-5" x1="889" y1="108" x2="762" y2="215"/><line class="cls-2" x1="749" y1="149" x2="679" y2="233"/><line class="cls-3" x1="793.79" y1="95.5" x2="765.7" y2="129.05"/><line class="cls-2" x1="821" y1="63" x2="808.93" y2="77.42"/><line class="cls-3" x1="737" y1="54" x2="642" y2="219"/><line class="cls-4" x1="675" y1="14" x2="605" y2="210"/><line class="cls-5" x1="594" y1="61" x2="569" y2="199"/><line class="cls-2" x1="151.49" y1="481.06" x2="177.33" y2="476.56"/><line class="cls-2" x1="181.33" y1="284.14" x2="194.5" y2="288.88"/></g></g></svg>